#!OML:ASF F:\VICON\USERDATA\INSTALL\rory3\rory3.ASF
:FULLY-SPECIFIED
:DEGREES
328
root 2.47863 9.83814 -5.73162 -18.4588 -4.29577 0.999109
lowerback 28.4399 0.302125 -1.30667
upperback 11.7868 0.136289 2.53978
thorax -2.4836 -0.0724756 3.49797
lowerneck -12.7958 -1.36698 -12.0762
upperneck 29.7039 0.719353 1.43282
head 11.8817 -0.844589 2.70512
rclavicle -2.62396e-014 -7.15625e-015
rhumerus -27.403 2.73629 -67.1287
rradius 82.9921
rwrist 15.2876
rhand -37.0619 6.66938
rfingers 7.12502
rthumb -10.1344 -23.0666
lclavicle -2.62396e-014 -7.15625e-015
lhumerus -29.0459 8.13854 72.1
lradius 81.7974
lwrist -5.0069
lhand -28.456 22.7976
lfingers 7.12502
lthumb -1.82635 52.7695
rfemur -74.2591 -2.59519 12.3328
rtibia 105.533
rfoot -7.91443 -4.62029
rtoes -2.18921
lfemur -77.379 12.8752 -20.9561
ltibia 101.691
lfoot -5.0096 -12.8579
ltoes -10.9211
329
root 2.47954 9.83754 -5.73673 -18.7048 -4.15381 1.21799
lowerback 28.4111 0.320297 -1.5899
upperback 11.6408 0.0895144 2.51085
thorax -2.62961 -0.0990825 3.64392
lowerneck -12.762 -1.37311 -12.1161
upperneck 29.8472 0.68894 1.53171
head 11.9327 -0.857161 2.74752
rclavicle 1.33186e-014 -1.19271e-014
rhumerus -26.9843 3.44953 -67.5627
rradius 84.3375
rwrist 15.6498
rhand -37.5087 6.12822
rfingers 7.12502
rthumb -10.5654 -23.5862
lclavicle 1.33186e-014 -1.19271e-014
lhumerus -28.8088 7.96378 72.5594
lradius 83.2438
lwrist -5.46898
lhand -28.2849 23.7455
lfingers 7.12502
lthumb -1.66104 53.7188
rfemur -74.0231 -2.73857 12.0532
rtibia 105.567
rfoot -7.91827 -4.53997
rtoes -2.0646
lfemur -77.0825 12.9498 -21.572
ltibia 101.483
lfoot -5.36932 -13.2266
ltoes -11.6061
330
root 2.47903 9.82727 -5.73707 -18.7703 -4.00391 1.40084
lowerback 28.1713 0.337481 -1.74282
upperback 11.5529 0.0726352 2.42512
thorax -2.61628 -0.107419 3.63983
lowerneck -12.8348 -1.44679 -12.0952
upperneck 29.8977 0.5617 1.62663
head 11.9758 -0.902446 2.76403
rclavicle 5.1684e-015 -2.38542e-014
rhumerus -26.4389 4.10526 -68.0914
rradius 85.4832
rwrist 16.2873
rhand -37.8384 4.97832
rfingers 7.12502
rthumb -10.8834 -24.7196
lclavicle 5.1684e-015 -2.38542e-014
lhumerus -28.1424 7.69676 73.0444
lradius 84.0524
lwrist -5.92371
lhand -28.4366 24.0818
lfingers 7.12502
lthumb -1.80757 54.0539
rfemur -74.047 -2.90454 11.8106
rtibia 105.682
rfoot -7.98434 -4.45695
rtoes -1.37257
lfemur -77.0097 13.0432 -22.1323
ltibia 101.568
lfoot -5.86866 -13.6529
ltoes -12.0561
331
root 2.4756 9.81832 -5.74031 -18.9015 -3.93943 1.32719
lowerback 27.9867 0.306748 -1.66665
upperback 11.5375 0.0538875 2.4029
thorax -2.54773 -0.113927 3.57439
lowerneck -12.9458 -1.4785 -11.9795
upperneck 29.8309 0.500491 1.628
head 11.975 -0.914252 2.73597
rclavicle -2.5842e-014 1.74931e-014
rhumerus -25.6594 4.5393 -68.7556
rradius 86.34
rwrist 16.894
rhand -37.4944 5.55921
rfingers 7.12502
rthumb -10.5516 -24.1559
lclavicle -2.5842e-014 1.74931e-014
lhumerus -27.3433 7.32774 73.6002
lradius 84.4622
lwrist -6.06719
lhand -29.377 22.8038
lfingers 7.12502
lthumb -2.71581 52.7663
rfemur -73.9447 -2.96002 11.9079
rtibia 105.776
rfoot -8.05255 -4.55369
rtoes -0.861999
lfemur -76.9115 13.2435 -22.4632
ltibia 101.645
lfoot -6.45739 -13.9976
ltoes -13.2557
332
root 2.47198 9.79751 -5.73346 -19.1322 -3.94988 1.15074
lowerback 27.9374 0.272439 -1.53318
upperback 11.4976 0.047545 2.45695
thorax -2.56981 -0.113528 3.55832
lowerneck -12.9806 -1.52211 -12.0602
upperneck 29.767 0.436767 1.71108
head 11.9613 -0.938924 2.7713
rclavicle -2.20651e-014 3.10104e-014
rhumerus -24.8764 4.92472 -69.4495
rradius 87.0751
rwrist 17.3608
rhand -37.0467 7.07403
rfingers 7.12502
rthumb -10.1197 -22.6626
lclavicle -2.20651e-014 3.10104e-014
lhumerus -26.7679 7.0304 74.1552
lradius 85.3053
lwrist -7.03032
lhand -29.7589 23.2036
lfingers 7.12502
lthumb -3.08465 53.1611
rfemur -73.7957 -2.95025 12.1295
rtibia 105.942
rfoot -8.11077 -4.75921
rtoes -1.31154
lfemur -76.4305 13.4829 -22.4216
ltibia 101.817
lfoot -7.10121 -14.3963
ltoes -13.5942
333
root 2.46896 9.77262 -5.71926 -19.3368 -3.97204 1.0389
lowerback 27.9119 0.246962 -1.46642
upperback 11.4253 0.0344559 2.48465
thorax -2.63854 -0.116811 3.55423
lowerneck -13.1333 -1.5529 -12.1749
upperneck 29.8634 0.402661 1.85878
head 12.0328 -0.953415 2.84448
rclavicle -1.76918e-014 -8.74653e-015
rhumerus -24.1577 5.58688 -70.0841
rradius 87.9156
rwrist 18.077
rhand -36.5684 7.09886
rfingers 7.12502
rthumb -9.65827 -22.6597
lclavicle -1.76918e-014 -8.74653e-015
lhumerus -26.2367 6.48477 74.6921
lradius 86.2413
lwrist -7.50458
lhand -29.9674 22.6726
lfingers 7.12502
lthumb -3.28602 52.627
rfemur -73.7726 -2.9644 12.3361
rtibia 106.14
rfoot -8.06549 -5.05645
rtoes -2.38514
lfemur -76.2981 13.6471 -22.501
ltibia 101.962
lfoot -7.40133 -14.5802
ltoes -13.5694
334
root 2.46691 9.76263 -5.72173 -19.5736 -3.89425 1.0253
lowerback 27.8857 0.22967 -1.47585
upperback 11.4111 0.0105935 2.47747
thorax -2.64055 -0.128199 3.55843
lowerneck -13.3997 -1.60838 -12.2253
upperneck 29.9903 0.353196 1.9472
head 12.1422 -0.976258 2.88342
rclavicle 1.59028e-015 -2.70347e-014
rhumerus -23.4062 6.39725 -70.6149
rradius 88.7502
rwrist 18.9173
rhand -36.2671 6.70737
rfingers 7.12502
rthumb -9.36757 -23.0645
lclavicle 1.59028e-015 -2.70347e-014
lhumerus -25.4443 5.76676 75.2301
lradius 87.0251
lwrist -8.07797
lhand -30.5577 22.5485
lfingers 7.12502
lthumb -3.85598 52.4933
rfemur -73.6422 -3.06561 12.4444
rtibia 106.232
rfoot -8.00587 -5.39458
rtoes -2.70674
lfemur -76.0261 13.7024 -22.74
ltibia 101.896
lfoot -7.40525 -14.5918
ltoes -12.465
335
root 2.46765 9.79741 -5.7681 -19.7898 -3.7121 1.04894
lowerback 27.8383 0.200484 -1.52406
upperback 11.4095 -0.0377651 2.46308
thorax -2.61646 -0.152848 3.58378
lowerneck -13.6285 -1.66999 -12.4063
upperneck 30.0305 0.280164 2.17298
head 12.2104 -1.00272 2.99203
rclavicle 1.68967e-014 -1.66979e-014
rhumerus -22.599 7.27956 -71.1202
rradius 89.437
rwrist 19.6328
rhand -36.2956 6.82285
rfingers 7.12502
rthumb -9.39498 -22.9478
lclavicle 1.68967e-014 -1.66979e-014
lhumerus -24.5764 5.12299 75.8158
lradius 87.5799
lwrist -8.82941
lhand -31.266 21.4031
lfingers 7.12502
lthumb -4.54004 51.3345
rfemur -73.1776 -3.21256 12.462
rtibia 105.964
rfoot -8.02974 -5.65902
rtoes -2.52834
lfemur -75.3596 13.67 -23.0674
ltibia 101.402
lfoot -7.27903 -14.607
ltoes -11.8384
336
root 2.46787 9.78679 -5.76068 -19.9021 -3.71143 1.20042
lowerback 27.6396 0.218077 -1.66872
upperback 11.344 -0.0523367 2.409
thorax -2.59577 -0.162063 3.60945
lowerneck -13.6525 -1.7079 -12.6074
upperneck 29.9928 0.21778 2.3815
head 12.2047 -1.02546 3.09642
rclavicle 1.94809e-014 -1.90833e-014
rhumerus -21.8129 8.25847 -71.6646
rradius 90
rwrist 20.4044
rhand -35.9323 7.15682
rfingers 7.12502
rthumb -9.04452 -22.6293
lclavicle 1.94809e-014 -1.90833e-014
lhumerus -23.8721 4.50793 76.3726
lradius 88.1908
lwrist -9.98774
lhand -31.136 22.6863
lfingers 7.12502
lthumb -4.41448 52.6203
rfemur -73.2696 -3.28148 12.3882
rtibia 106.088
rfoot -7.89833 -5.79888
rtoes -2.13794
lfemur -75.1596 13.8479 -23.4782
ltibia 101.295
lfoot -7.17829 -14.5935
ltoes -10.8845
337
root 2.47025 9.7749 -5.74515 -20.0466 -3.82112 1.31138
lowerback 27.5509 0.271531 -1.7495
upperback 11.2142 -0.0035651 2.38467
thorax -2.70301 -0.136119 3.61483
lowerneck -13.5997 -1.77704 -12.6071
upperneck 29.9532 0.153551 2.23702
head 12.187 -1.07098 3.0306
rclavicle 2.18663e-015 -3.97569e-015
rhumerus -21.1991 9.23951 -72.1683
rradius 90.4118
rwrist 21.0027
rhand -35.3156 7.70893
rfingers 7.12502
rthumb -8.44938 -22.102
lclavicle 2.18663e-015 -3.97569e-015
lhumerus -23.3224 3.83771 76.9218
lradius 88.661
lwrist -10.8477
lhand -30.5265 22.5211
lfingers 7.12502
lthumb -3.82591 52.4665
rfemur -73.3438 -3.28304 12.4028
rtibia 106.251
rfoot -7.78869 -5.93249
rtoes -0.0741163
lfemur -74.9102 14.1347 -23.7568
ltibia 101.275
lfoot -7.21393 -14.6124
ltoes -8.75138
338
root 2.47135 9.77329 -5.74424 -20.1664 -3.94006 1.19358
lowerback 27.5187 0.283157 -1.60931
upperback 11.0757 0.0485155 2.39131
thorax -2.848 -0.102328 3.52662
lowerneck -13.5141 -1.79254 -12.3074
upperneck 29.8194 0.128206 1.93037
head 12.1186 -1.08189 2.85609
rclavicle -3.37934e-015 1.11319e-014
rhumerus -20.6337 10.3002 -72.6958
rradius 90.7579
rwrist 21.5866
rhand -35.0464 7.987
rfingers 7.12502
rthumb -8.18954 -21.8343
lclavicle -3.37934e-015 1.11319e-014
lhumerus -22.7271 3.02558 77.3997
lradius 88.8974
lwrist -11.579
lhand -30.4572 21.9828
lfingers 7.12502
lthumb -3.75896 51.9294
rfemur -73.308 -3.22419 12.6846
rtibia 106.307
rfoot -7.60127 -6.21066
rtoes 1.05598
lfemur -74.5977 14.3894 -23.7619
ltibia 101.231
lfoot -7.37895 -14.6443
ltoes -6.6179
339
root 2.47206 9.76355 -5.73983 -20.2365 -4.02085 1.11682
lowerback 27.4535 0.287964 -1.47405
upperback 10.9459 0.0887589 2.35505
thorax -2.96674 -0.0740921 3.39694
lowerneck -13.4449 -1.78934 -12.0897
upperneck 29.6949 0.0968305 1.81219
head 12.0553 -1.08133 2.76744
rclavicle -7.55382e-015 -7.15625e-015
rhumerus -19.9882 11.28 -73.3061
rradius 90.947
rwrist 22.3073
rhand -34.7762 7.44428
rfingers 7.12502
rthumb -7.92881 -22.387
lclavicle -7.55382e-015 -7.15625e-015
lhumerus -22.0839 2.12882 77.8497
lradius 89.0694
lwrist -12.2533
lhand -30.2357 21.7641
lfingers 7.12502
lthumb -3.54508 51.7144
rfemur -73.4 -3.24965 12.9616
rtibia 106.396
rfoot -7.35181 -6.52738
rtoes 1.0096
lfemur -74.3948 14.5945 -23.7978
ltibia 101.187
lfoot -7.22547 -14.4657
ltoes -4.8437
